<svg class="fill-current w-full h-full" width="150" height="59" viewBox="0 0 150 59" fill="none" xmlns="http://www.w3.org/2000/svg">
    <path d="M0 21.0679V58.0992H19.9V51.1934H6.9V41.4351H19.9V34.6293H6.9V27.9737H19.9V21.0679H0Z" fill="currentColor"/>
    <path d="M53.1 20.117V58.0992H59.85V45.4885L71.25 58.0992H79.65L66.65 43.8372L78.2 30.726H69.8L59.85 42.0356V20.117H53.1Z" fill="currentColor"/>
    <path d="M109.85 20.117H116.6V33.4784C117.9 32.3274 119.25 31.4266 120.6 30.8762C121.95 30.2757 123.3 30.0254 124.65 30.0254C127.3 30.0254 129.55 30.9763 131.4 32.8278C132.95 34.4792 133.75 36.8312 133.75 39.9839V58.0992H127.1V46.0891C127.1 42.9364 126.95 40.7846 126.65 39.6336C126.35 38.5327 125.85 37.6819 125.15 37.1315C124.45 36.581 123.55 36.2807 122.5 36.2807C121.15 36.2807 119.95 36.7311 119 37.6819C118 38.5827 117.35 39.8838 116.95 41.4351C116.75 42.2358 116.65 44.1374 116.65 47.0899V58.0992H109.9L109.85 20.117Z" fill="currentColor"/>
    <path d="M43.6 48.341C42.25 50.693 39.75 52.2443 36.9 52.2443C32.6 52.2443 29.15 48.6913 29.15 44.3876C29.15 40.0339 32.6 36.531 36.9 36.531C39.9 36.531 42.5 38.2824 43.8 40.7846L49.45 37.3316C47 32.8779 42.3 29.8253 36.95 29.8253C29.05 29.8253 22.65 36.3308 22.65 44.3876C22.65 52.4444 29.05 58.95 36.95 58.95C42.2 58.95 46.75 56.0975 49.25 51.8439L43.6 48.341Z" fill="currentColor"/>
    <path d="M92.55 52.4444C88.2 52.4444 84.65 48.8414 84.65 44.4377C84.65 40.0339 88.2 36.4309 92.55 36.4309C96.9 36.4309 100.45 40.0339 100.45 44.4377C100.45 48.8914 96.9 52.4444 92.55 52.4444ZM92.6 29.8753C84.7 29.8753 78.3 36.3808 78.3 44.4377C78.3 52.4945 84.7 59 92.6 59C100.5 59 106.9 52.4945 106.9 44.4377C106.9 36.3808 100.5 29.8753 92.6 29.8753Z" fill="#BA0C46"/>
    <path d="M150 8.05683C150 12.5106 146.45 16.1137 142.1 16.1137C137.75 16.1137 134.2 12.5106 134.2 8.05683C134.2 3.60305 137.75 0 142.1 0C146.45 0 150 3.60305 150 8.05683Z" fill="#BA0C46"/>
</svg>
