<svg width="300" height="115" viewBox="0 0 300 115" xmlns="http://www.w3.org/2000/svg">
    <path d="M56.6607 72.3876C51.865 87.3643 50.2664 102.341 53.9964 115C40.8526 116.07 34.4583 104.659 38.0107 87.8992C40.1421 77.9147 47.9574 70.9612 56.8384 71.8527C56.8384 72.031 56.8384 72.2093 56.6607 72.3876ZM111.012 1.24806C95.0266 -5.88373 85.2576 18.5426 78.6856 39.2248C76.7318 45.4651 74.778 51.8837 73.1794 57.9457C69.0941 59.5504 64.8313 60.6202 60.5684 61.3333C63.7655 52.7752 66.4298 46.1783 69.0941 37.9767C72.8242 26.3876 67.4956 14.4419 57.1936 17.1163C58.437 26.5659 56.8384 33.6977 54.1741 41.7209C52.7531 46.1783 49.7336 53.845 46.714 62.2248C44.2274 62.2248 41.5631 62.4031 38.5435 62.4031C-0.355238 63.1163 -5.68384 83.7984 4.4405 92.3566C9.41386 79.3411 22.913 70.9612 39.9645 69.7132C40.675 69.7132 41.2078 69.7132 41.9183 69.5349H42.0959C42.6288 69.5349 43.3393 69.5349 43.8721 69.3566C48.6679 69 53.4636 68.4651 58.0817 67.7519C62.6998 67.0388 67.1403 65.7907 71.5808 64.186C72.6465 63.8295 73.7123 63.2946 74.778 62.7597C71.9361 66.8605 70.1599 71.4961 69.4494 76.4884C67.4956 93.0698 70.5151 104.837 83.8366 104.481C73.0018 75.5969 89.8757 32.093 111.012 1.24806ZM298.757 35.124C292.362 47.6046 271.758 49.7442 259.858 46C258.437 45.4651 257.016 44.7519 255.595 44.0388C255.417 44.0388 255.417 43.8605 255.24 43.8605C255.062 43.8605 255.062 43.6822 254.885 43.6822C254.707 43.5039 254.529 43.3256 254.174 43.3256C253.996 43.3256 253.996 43.1473 253.819 43.1473L253.464 42.7907L253.286 42.6124C249.378 39.4031 247.425 34.4108 248.49 29.4186C242.274 35.8372 237.478 55.4496 244.227 57.7674C247.78 59.0155 251.332 55.093 253.641 49.9225C253.641 49.7442 253.819 49.7442 253.819 49.5659C254.707 47.7829 257.016 46.8915 258.792 47.7829C258.792 47.7829 258.97 47.7829 258.97 47.9612C255.595 58.8372 247.957 68.4651 239.076 65.4341C220.426 59.3721 237.833 17.8295 254.174 23.1783C259.858 24.9612 261.634 32.6279 260.568 40.8295C275.666 44.0388 291.829 36.3721 296.448 21.9302C300 24.2481 301.066 30.4884 298.757 35.124ZM255.595 29.5969C253.641 26.3876 248.845 36.3721 256.483 39.4031C257.194 36.1938 256.838 32.8062 255.595 29.5969ZM234.991 104.302C227.353 101.806 221.137 95.5659 217.229 87.8992C215.098 82.907 219.893 79.6977 224.867 80.0543C227.176 89.5039 232.327 97.1705 239.787 99.4884C248.668 102.341 252.22 86.2946 230.195 79.1628C229.84 78.9845 229.307 78.9845 228.952 78.8062C228.774 78.8062 228.774 78.8062 228.597 78.6279C228.242 78.6279 227.886 78.4496 227.531 78.4496H227.176C226.821 78.4496 226.465 78.2713 225.933 78.2713H225.755C221.137 77.7364 216.519 77.9147 212.078 78.8062C211.723 78.8062 211.368 78.9845 211.012 78.9845C180.817 85.2248 142.274 117.674 111.723 107.69C101.776 104.481 96.9805 100.38 93.6057 92.3566C137.3 112.504 177.265 78.093 212.966 73.814C212.078 67.3953 212.433 60.9767 214.387 54.7364C216.874 46.8915 221.492 34.7674 218.295 33.6977C214.032 32.2713 205.861 49.5659 203.552 61.3333C203.02 64.3643 203.02 67.5736 203.375 70.6046C201.421 71.1395 199.29 71.3178 197.336 70.7829C193.073 69.3566 192.007 65.969 192.718 60.7984C186.856 70.2481 179.929 75.5969 173.535 73.6357C170.16 72.5659 167.673 69.8915 166.785 66.5039C164.121 73.1008 158.97 78.4496 153.464 76.6667C147.069 74.5271 145.471 67.5736 147.602 60.9767C149.201 55.9845 154.352 43.8605 150.977 42.7907C145.471 41.0077 133.393 65.6124 135.346 79.6977C128.419 81.124 122.025 76.4884 125.222 66.6822C128.419 57.0543 134.103 46.8915 131.083 45.8217C128.597 44.9302 125.222 60.0853 117.94 63.6512C117.762 63.6512 117.762 63.8295 117.584 63.8295C117.407 63.8295 117.407 63.8295 117.229 64.0078C117.052 64.0078 117.052 64.0077 116.874 64.186C115.453 64.5426 114.032 64.5426 112.611 64.0078C112.256 63.8295 112.078 63.8295 111.723 63.6512C111.545 63.6512 111.545 63.6512 111.545 63.4729C111.368 63.4729 111.19 63.2946 111.012 63.2946C110.835 63.2946 110.835 63.2946 110.835 63.1163C110.657 63.1163 110.657 63.1163 110.48 62.938L110.302 62.7597C110.124 62.7597 110.124 62.7597 109.947 62.5814C104.796 59.0155 105.151 52.2403 106.927 47.6046C100.71 53.6667 93.7833 74.8837 102.664 77.9147C105.684 78.8062 108.703 75.2403 110.835 70.0698C111.723 67.7519 114.032 66.3256 116.519 66.6822C113.321 77.9147 105.684 87.8992 96.27 84.6899C76.3766 78.2713 96.8028 36.7287 111.901 41.7209C117.229 43.5039 119.005 50.814 118.117 58.8372C124.512 54.3798 127.531 35.124 138.011 38.5116C141.563 39.7597 142.274 43.3256 139.432 52.5969L139.787 52.7752C144.405 42.969 152.931 33.1628 159.325 35.3023C173.179 39.7597 150.622 66.1473 159.503 69C163.233 70.2481 165.719 63.4729 166.963 57.5891C168.739 44.3953 177.975 28.1705 188.81 31.7364C199.112 35.124 192.007 50.6357 186.679 48.8527C183.837 47.9612 183.304 45.4651 184.192 42.6124C185.08 39.7597 188.099 37.2636 186.323 36.7287C183.126 35.6589 170.515 64.5426 179.218 67.3953C186.146 69.7132 196.625 49.7442 200.355 38.155C203.908 27.2791 208.171 8.73643 206.572 1.24806C216.519 -1.42636 220.782 7.31007 217.584 17.1163C215.453 23.3566 210.302 35.4806 207.815 43.3256C213.321 32.8062 220.249 25.4961 225.755 27.2791C231.972 29.4186 232.149 36.907 226.998 52.7752C224.867 59.5504 223.979 66.8605 224.512 73.9922C227.886 74.3488 231.261 74.8837 234.458 75.9535C259.147 83.7984 256.306 111.256 234.991 104.302ZM112.789 48.8527C111.368 46.1783 106.572 56.876 113.321 59.1938C114.032 55.8062 113.854 52.2403 112.789 48.8527Z" fill="currentColor" />
</svg>
