<svg class="fill-current w-full h-full" width="301" height="100" viewBox="0 0 301 66" fill="none" xmlns="http://www.w3.org/2000/svg">
<path d="M102.871 28.8762V48.0318C102.867 48.4195 102.781 48.802 102.62 49.155C102.459 49.508 102.225 49.8238 101.934 50.0822C101.387 50.634 100.644 50.9512 99.8642 50.9662C99.0546 50.9675 98.2775 50.6495 97.7036 50.0822C97.4127 49.8238 97.1792 49.508 97.0179 49.155C96.8567 48.802 96.7712 48.4195 96.7669 48.0318V29.7478C96.773 28.4977 96.5231 27.2595 96.0322 26.1084C95.5413 24.9574 94.8198 23.9176 93.9116 23.0524C93.0604 22.1389 92.0272 21.4114 90.8777 20.9161C89.7282 20.4208 88.4876 20.1685 87.2346 20.1754C80.8871 20.1754 77.6945 23.2447 77.6945 29.3787V48.0318C77.7049 48.4328 77.6068 48.8291 77.4104 49.1795V49.2369L77.3526 49.392C77.2745 49.4419 77.2186 49.5196 77.1965 49.6092C77.0047 49.8482 76.7887 50.067 76.5518 50.2621L75.9913 50.6979H75.8352L75.6994 50.7553C75.512 50.8339 75.3144 50.8861 75.1124 50.9104C74.9776 50.9655 74.8314 50.9873 74.6862 50.974H74.3178C74.3007 50.9548 74.2798 50.9393 74.2565 50.9283C74.2331 50.9174 74.2078 50.9113 74.182 50.9104C74.095 50.9027 74.0088 50.8876 73.9244 50.8654C73.8393 50.8512 73.7531 50.845 73.6668 50.8468C73.332 50.7173 73.0168 50.5424 72.7301 50.3272C72.5726 50.2271 72.4275 50.1089 72.2977 49.9752C72.278 49.8913 72.2328 49.8155 72.1681 49.7581C71.8437 49.4219 71.6377 48.9904 71.5811 48.5281V2.96611C71.5834 2.57814 71.668 2.19499 71.8294 1.8417C71.9908 1.4884 72.2253 1.17289 72.5178 0.915765C72.7971 0.626563 73.1326 0.396744 73.5041 0.240248C73.8755 0.0837518 74.275 0.0038404 74.6784 0.0053619C75.0673 0.0114036 75.451 0.0951195 75.8066 0.251525C76.1622 0.40793 76.4825 0.633826 76.7485 0.915765C77.0414 1.17251 77.2763 1.48794 77.4377 1.84133C77.5992 2.19471 77.6835 2.57804 77.6852 2.96611V17.1479C80.418 15.1174 83.7557 14.0528 87.1675 14.1236C91.2641 14.0828 95.2148 15.6326 98.1782 18.443C99.6711 19.7432 100.863 21.3487 101.673 23.1495C102.483 24.9503 102.892 26.9038 102.871 28.8762Z" fill="currentColor"/>
<path d="M138.009 17.1076V47.8457C138.007 48.2368 137.923 48.6231 137.762 48.9798C137.601 49.3365 137.366 49.6555 137.072 49.9162C136.796 50.2044 136.464 50.4342 136.095 50.5917C135.727 50.7492 135.331 50.8312 134.93 50.8328C134.172 50.8153 133.452 50.5022 132.924 49.9612C132.344 49.4645 131.979 48.7645 131.905 48.007C129.228 50.1494 125.885 51.3007 122.448 51.264C120.408 51.2838 118.384 50.9014 116.494 50.139C114.604 49.3765 112.885 48.2491 111.437 46.8221C109.942 45.4914 108.749 43.8595 107.938 42.0352C107.127 40.2108 106.717 38.2358 106.735 36.2416V17.1076C106.74 16.7172 106.826 16.3321 106.987 15.976C107.148 15.6199 107.381 15.3004 107.671 15.0371C107.94 14.7531 108.264 14.5261 108.623 14.3697C108.982 14.2132 109.37 14.1305 109.762 14.1267C110.162 14.1283 110.558 14.2097 110.926 14.3661C111.294 14.5225 111.626 14.7506 111.904 15.0371C112.199 15.2977 112.436 15.6163 112.601 15.9726C112.766 16.329 112.855 16.7154 112.862 17.1076V35.3684C112.858 36.6265 113.108 37.8725 113.598 39.0328C114.088 40.193 114.807 41.2437 115.713 42.1227C116.565 43.0357 117.598 43.7639 118.747 44.2613C119.896 44.7588 121.136 45.015 122.39 45.0137C128.757 45.0137 131.937 41.9227 131.93 35.7406V17.1076C131.933 16.7168 132.018 16.3309 132.179 15.9745C132.34 15.618 132.574 15.2988 132.867 15.0371C133.135 14.7531 133.459 14.5261 133.818 14.3697C134.177 14.2132 134.565 14.1305 134.957 14.1267C135.357 14.1307 135.752 14.2132 136.119 14.3694C136.487 14.5257 136.82 14.7526 137.099 15.0371C137.391 15.2985 137.626 15.6177 137.787 15.9742C137.948 16.3307 138.033 16.7167 138.035 17.1076H138.009Z" fill="currentColor"/>
<path d="M174.997 19.5193C173.296 17.7711 171.251 16.3897 168.989 15.4614C166.727 14.533 164.297 14.0776 161.851 14.1236C157.263 14.0422 152.827 15.7492 149.491 18.8788V2.96611C149.489 2.57804 149.405 2.19471 149.244 1.84133C149.082 1.48794 148.847 1.17251 148.554 0.915765C148.275 0.626563 147.94 0.396744 147.568 0.240248C147.197 0.0837518 146.797 0.0038404 146.394 0.0053619C146.005 0.0114036 145.621 0.0951195 145.266 0.251525C144.91 0.40793 144.59 0.633826 144.324 0.915765C144.031 1.17251 143.796 1.48794 143.634 1.84133C143.473 2.19471 143.389 2.57804 143.387 2.96611V48.0225C143.391 48.4102 143.477 48.7927 143.638 49.1457C143.799 49.4987 144.033 49.8145 144.324 50.0729C144.87 50.6258 145.614 50.9432 146.394 50.9569C147.203 50.9581 147.98 50.6402 148.554 50.0729C148.845 49.8145 149.079 49.4987 149.24 49.1457C149.401 48.7927 149.487 48.4102 149.491 48.0225V46.5104C153.013 49.6824 157.632 51.3811 162.384 51.2522C167.136 51.1234 171.654 49.1768 174.997 45.8187C176.756 44.0991 178.144 42.0418 179.076 39.7722C180.009 37.5026 180.467 35.0681 180.422 32.617C180.469 30.1811 180.012 27.7616 179.078 25.5085C178.145 23.2555 176.756 21.2169 174.997 19.5193ZM170.662 41.4683C169.52 42.6356 168.148 43.5567 166.632 44.1742C165.116 44.7917 163.489 45.0922 161.851 45.0571C160.219 45.0934 158.597 44.7932 157.088 44.1755C155.579 43.5578 154.216 42.636 153.083 41.4683C151.915 40.3103 150.994 38.9292 150.377 37.4083C149.76 35.8874 149.459 34.2581 149.493 32.6186C149.455 30.9889 149.754 29.3689 150.371 27.8587C150.989 26.3485 151.912 24.9803 153.083 23.8387C154.215 22.6681 155.578 21.7427 157.086 21.1208C158.595 20.4989 160.217 20.1939 161.851 20.225C163.488 20.2162 165.11 20.5314 166.623 21.1521C168.137 21.7728 169.51 22.6866 170.664 23.8402C171.819 24.9938 172.73 26.3641 173.345 27.8713C173.961 29.3784 174.268 30.9922 174.249 32.6186C174.284 34.2582 173.984 35.8879 173.368 37.4092C172.751 38.9305 171.831 40.3103 170.662 41.4683Z" fill="currentColor"/>
<path d="M215.579 19.5131C213.874 17.7706 211.828 16.3939 209.567 15.4679C207.306 14.542 204.878 14.0866 202.432 14.1298C197.851 14.0487 193.418 15.7425 190.073 18.8524V17.3527C190.07 16.9656 189.986 16.5834 189.824 16.2311C189.663 15.8788 189.428 15.5644 189.136 15.3085C188.857 15.0254 188.524 14.8003 188.156 14.6464C187.788 14.4925 187.393 14.4128 186.994 14.4121C186.603 14.4138 186.216 14.4941 185.857 14.6481C185.498 14.8022 185.173 15.0268 184.904 15.3085C184.612 15.5647 184.378 15.8792 184.216 16.2314C184.055 16.5836 183.97 16.9657 183.967 17.3527V62.0849C183.972 62.4715 184.058 62.8528 184.219 63.2047C184.381 63.5566 184.614 63.8714 184.904 64.1291C185.458 64.6819 186.209 64.997 186.994 65.0069C187.795 64.998 188.562 64.6838 189.136 64.1291C189.427 63.872 189.66 63.5573 189.822 63.2053C189.983 62.8533 190.069 62.4717 190.073 62.0849V46.2886C193.424 49.3893 197.853 51.0816 202.432 51.0112C204.868 51.0241 207.282 50.5584 209.536 49.641C211.79 48.7236 213.839 47.3725 215.566 45.6655C217.292 43.9585 218.662 41.9292 219.596 39.6944C220.531 37.4596 221.011 35.0633 221.01 32.6434C221.045 30.2038 220.581 27.7824 219.648 25.5256C218.714 23.2689 217.33 21.2235 215.579 19.5131ZM211.243 41.3535C209.513 43.0869 207.303 44.2696 204.894 44.7511C202.485 45.2326 199.987 44.991 197.716 44.0571C195.446 43.1233 193.507 41.5394 192.146 39.5071C190.785 37.4748 190.063 35.086 190.073 32.6449C190.044 31.0147 190.348 29.3956 190.965 27.8847C191.582 26.3739 192.5 25.0024 193.663 23.8527C196.006 21.5571 199.165 20.2702 202.456 20.2702C205.746 20.2702 208.905 21.5571 211.248 23.8527C212.419 24.9972 213.341 26.3677 213.959 27.8798C214.576 29.3919 214.876 31.0136 214.839 32.6449C214.875 34.2642 214.575 35.8736 213.956 37.3722C213.338 38.8707 212.414 40.2262 211.243 41.3535Z" fill="currentColor"/>
<path d="M259.147 15.3225C258.596 14.7626 257.844 14.4424 257.056 14.4322C256.253 14.4415 255.485 14.7608 254.914 15.3225C254.623 15.5859 254.389 15.9063 254.228 16.2637C254.067 16.621 253.982 17.0076 253.978 17.3992V18.9237C250.469 15.7304 245.849 14.014 241.092 14.1358C236.335 14.2576 231.811 16.208 228.472 19.5767C226.717 21.3014 225.331 23.3614 224.399 25.6324C223.467 27.9034 223.007 30.3384 223.047 32.7907C223.008 35.2572 223.468 37.7064 224.4 39.9929C225.332 42.2793 226.716 44.3565 228.472 46.1009C231.8 49.4843 236.323 51.4489 241.083 51.5792C245.843 51.7094 250.467 49.9951 253.978 46.7988V48.3234C253.979 48.7145 254.063 49.1008 254.225 49.4575C254.386 49.8142 254.621 50.1332 254.914 50.3939C255.19 50.6833 255.522 50.9139 255.89 51.0715C256.259 51.2291 256.655 51.3104 257.056 51.3105C257.45 51.31 257.839 51.2282 258.198 51.0704C258.558 50.9126 258.881 50.6823 259.147 50.3939C259.44 50.1332 259.675 49.8142 259.836 49.4575C259.998 49.1008 260.082 48.7145 260.083 48.3234V17.3976C260.08 17.0061 259.994 16.6195 259.833 16.2621C259.672 15.9048 259.438 15.5859 259.147 15.3225ZM250.404 41.7133C249.253 42.8667 247.884 43.7821 246.375 44.4069C244.866 45.0317 243.247 45.3533 241.612 45.3533C239.977 45.3533 238.359 45.0317 236.849 44.4069C235.34 43.7821 233.971 42.8667 232.82 41.7133C231.644 40.543 230.72 39.1478 230.103 37.6123C229.485 36.0768 229.188 34.4328 229.229 32.7799C229.189 31.1396 229.487 29.5084 230.105 27.9866C230.722 26.4648 231.646 25.0844 232.82 23.9302C235.153 21.6159 238.315 20.316 241.612 20.316C244.909 20.316 248.071 21.6159 250.404 23.9302C251.568 25.0917 252.486 26.4734 253.102 27.9935C253.719 29.5136 254.023 31.1412 253.995 32.7799C254.024 34.4315 253.721 36.0723 253.104 37.606C252.487 39.1398 251.567 40.5357 250.4 41.7117L250.404 41.7133Z" fill="currentColor"/>
<path d="M299.767 18.8974L283.831 56.7543C282.929 58.8899 281.44 60.7305 279.535 62.0663C277.382 63.5828 274.807 64.3959 272.168 64.3927C271.412 64.39 270.657 64.3256 269.911 64.2004L266.465 63.5661C265.728 63.4297 265.062 63.0434 264.579 62.4732C264.097 61.903 263.829 61.1841 263.821 60.4394C263.822 60.2299 263.85 60.0214 263.905 59.819C264.059 59.007 264.53 58.2885 265.215 57.8198C265.762 57.4427 266.413 57.2413 267.079 57.2429C267.272 57.239 267.464 57.2562 267.653 57.2941L271.088 57.9284C271.893 58.0819 272.722 58.0702 273.523 57.8939C274.324 57.7176 275.08 57.3805 275.745 56.9032C276.674 56.2431 277.403 55.3431 277.854 54.3008L278.906 51.7432L264.089 18.9827C263.908 18.5703 263.816 18.1251 263.818 17.6752C263.819 17.2556 263.904 16.8403 264.068 16.4534C264.231 16.0666 264.471 15.7158 264.772 15.4214C265.073 15.1271 265.43 14.8949 265.822 14.7384C266.214 14.582 266.633 14.5042 267.055 14.5098C267.682 14.5054 268.296 14.6825 268.823 15.0194C269.35 15.3562 269.766 15.8383 270.022 16.4066L282.364 43.6349L293.788 16.45C294.037 15.8693 294.454 15.3748 294.985 15.0292C295.517 14.6836 296.139 14.5023 296.775 14.5082C297.209 14.5004 297.641 14.5855 298.039 14.7579C298.432 14.9106 298.79 15.1403 299.091 15.4335C299.393 15.7266 299.632 16.0771 299.794 16.464C299.957 16.8499 300.039 17.2649 300.034 17.6834C300.03 18.1019 299.939 18.5151 299.767 18.8974Z" fill="currentColor"/>
<path d="M50.0921 8.6441V6.56739C50.0895 4.92738 49.4713 3.34729 48.3583 2.13605C47.2453 0.924802 45.7177 0.169484 44.0739 0.0177613C43.6395 -0.0233576 43.2011 0.0070365 42.7766 0.107717L6.38816 8.31065H6.14931C6.11028 8.31065 6.04628 8.33702 5.9932 8.33702C5.94043 8.33268 5.88732 8.33901 5.83709 8.35563C5.77148 8.35251 5.70585 8.36145 5.6435 8.382C5.60448 8.382 5.5592 8.40061 5.48739 8.40061C5.41558 8.40061 5.38435 8.42697 5.33128 8.42697C5.28096 8.44599 5.22856 8.459 5.17517 8.46575C5.12156 8.47139 5.06902 8.48444 5.01905 8.50452C4.96463 8.50965 4.91167 8.52491 4.86294 8.5495C4.80561 8.55398 4.74929 8.56705 4.6959 8.58827C4.65687 8.60688 4.58662 8.60688 4.53978 8.62704C4.49126 8.64557 4.44383 8.6668 4.39772 8.69063C4.34316 8.68979 4.28934 8.70315 4.2416 8.72941C4.18384 8.74802 4.13857 8.76818 4.07457 8.78679L3.95124 8.84418C3.89347 8.87054 3.8482 8.88295 3.78419 8.90776C3.74517 8.93413 3.69989 8.94654 3.65462 8.97135C3.60935 8.99617 3.55158 9.03494 3.51256 9.05511C3.47274 9.07686 3.43154 9.09603 3.38923 9.11249C3.3455 9.14607 3.29779 9.1742 3.24716 9.19624C3.20189 9.22261 3.15662 9.25983 3.11759 9.2862C3.07856 9.31256 3.00831 9.34358 2.96148 9.36995C2.9245 9.39798 2.88593 9.42387 2.84595 9.4475C2.79989 9.48016 2.75656 9.51647 2.71638 9.55606C2.67735 9.58243 2.63832 9.61965 2.60085 9.64601C2.56339 9.67238 2.51031 9.7034 2.47128 9.74217C2.43708 9.77473 2.40056 9.80479 2.362 9.83213C2.31058 9.86807 2.26298 9.90912 2.21994 9.95465C2.18899 9.989 2.15195 10.0174 2.11066 10.0384L1.99513 10.1609C1.96139 10.194 1.93105 10.2304 1.90459 10.2695L1.67823 10.5006C1.64741 10.546 1.61066 10.5872 1.56894 10.6231C1.53442 10.6515 1.50579 10.6862 1.48464 10.7255C1.43328 10.765 1.39518 10.8191 1.37536 10.8806C1.33634 10.9069 1.3176 10.9442 1.27233 10.9829C1.23593 11.0308 1.20552 11.0829 1.18178 11.138C1.14824 11.1697 1.11981 11.2063 1.09748 11.2466C1.05845 11.2854 1.03972 11.3489 0.994446 11.3877C0.949173 11.4265 0.95542 11.4715 0.930442 11.5165C0.897611 11.5605 0.869364 11.6078 0.846139 11.6576C0.811621 11.6937 0.783157 11.7351 0.761837 11.7801C0.739514 11.8306 0.720228 11.8824 0.704077 11.9352C0.672282 11.9768 0.650397 12.0251 0.640069 12.0763C0.605527 12.1243 0.577202 12.1764 0.555767 12.2314C0.529228 12.2702 0.516741 12.3152 0.491763 12.354C0.465223 12.4175 0.452734 12.4765 0.427756 12.5277C0.420813 12.5762 0.4077 12.6236 0.388728 12.6688C0.369994 12.7076 0.349699 12.7774 0.324721 12.8348C0.299743 12.8921 0.305988 12.9185 0.285693 12.9573C0.26696 13.0209 0.266957 13.0798 0.246662 13.131C0.224057 13.1749 0.210774 13.2229 0.207635 13.2721C0.18721 13.3345 0.174114 13.399 0.168607 13.4644C0.14992 13.5005 0.136766 13.5392 0.129579 13.5792C0.129579 13.6428 0.110844 13.7079 0.110844 13.7715C0.090036 13.806 0.0807465 13.8462 0.0843043 13.8863C0.0655707 13.9762 0.0655713 14.0414 0.0452765 14.0972V14.2197C0.0295126 14.2868 0.0232091 14.3557 0.0265443 14.4245C0.0303976 14.467 0.0211422 14.5098 4.69745e-06 14.547V44.6477C-0.00208021 46.3873 0.689932 48.0569 1.92446 49.2906C3.15899 50.5243 4.83538 51.2217 6.58643 51.2299H48.0236C49.7743 51.2205 51.45 50.5227 52.6842 49.2892C53.9185 48.0558 54.6109 46.3869 54.61 44.6477V14.8696C54.6125 13.4924 54.1782 12.1495 53.3689 11.0315C52.5596 9.91342 51.4164 9.07702 50.1015 8.641L50.0921 8.6441ZM43.5962 3.71521C43.6416 3.69785 43.6897 3.68891 43.7383 3.68884C44.4604 3.7556 45.1315 4.08738 45.6205 4.61938C46.1095 5.15138 46.3813 5.84539 46.3829 6.56584V8.32461H23.2125L43.5962 3.71521ZM50.8852 44.6787C50.8887 45.055 50.8173 45.4282 50.6753 45.7771C50.5333 46.1259 50.3233 46.4434 50.0574 46.7115C49.7915 46.9795 49.475 47.1927 49.126 47.3389C48.777 47.4851 48.4024 47.5614 48.0236 47.5635H6.36319C6.32572 47.5425 6.28271 47.5333 6.23986 47.5371C6.17585 47.5371 6.13058 47.5185 6.07282 47.5185C6.03534 47.4975 5.99234 47.4883 5.94949 47.4921C5.90105 47.4677 5.84769 47.4544 5.79337 47.4533C5.75436 47.4346 5.71282 47.4215 5.67004 47.4146C5.63102 47.3882 5.58574 47.3758 5.54047 47.351C5.50023 47.3438 5.4613 47.3308 5.42495 47.3122C5.38592 47.2936 5.34064 47.2734 5.29537 47.2548C5.25485 47.2374 5.21616 47.2161 5.17985 47.1912C5.14082 47.1726 5.11584 47.1525 5.07057 47.1338C5.0334 47.0961 4.98945 47.0656 4.94099 47.0439C4.91105 47.0153 4.87866 46.9894 4.8442 46.9663C4.80333 46.9447 4.76639 46.9164 4.73492 46.8826C4.70259 46.848 4.66585 46.8178 4.62564 46.7926C4.5991 46.7539 4.56164 46.7353 4.54134 46.6841C4.50232 46.6717 4.48358 46.6329 4.43207 46.5817L4.34776 46.498C4.31746 46.4587 4.28932 46.4178 4.26346 46.3754C4.23976 46.338 4.21144 46.3036 4.17916 46.2731C4.16043 46.2343 4.14013 46.1831 4.1214 46.1443C4.09778 46.1117 4.07639 46.0775 4.05739 46.042C4.03087 45.9926 4.00943 45.9406 3.99339 45.8869C3.9688 45.8527 3.94738 45.8163 3.92938 45.7783C3.91041 45.7331 3.89729 45.6857 3.89035 45.6372C3.87082 45.6036 3.8576 45.5669 3.85132 45.5286C3.8289 45.4797 3.81567 45.4272 3.81229 45.3735C3.79393 45.3403 3.78477 45.3028 3.78575 45.265C3.76702 45.2014 3.76702 45.1362 3.74673 45.0726V44.9641C3.7302 44.8689 3.72392 44.7721 3.72799 44.6756V14.8742C3.72635 14.4984 3.79935 14.1258 3.94281 13.778C4.08628 13.4302 4.29739 13.1139 4.56406 12.8472C4.83074 12.5806 5.14773 12.3688 5.4969 12.224C5.84607 12.0792 6.22055 12.0043 6.59892 12.0034H48.0236C48.4102 12.0015 48.7931 12.0777 49.149 12.2276C49.5049 12.3774 49.8263 12.5977 50.0937 12.8751C50.6066 13.4156 50.8906 14.1314 50.8867 14.8742V44.6803L50.8852 44.6787Z" fill="currentColor"/>
<path fill-rule="evenodd" clip-rule="evenodd" d="M24.8814 39.3217C24.5475 39.6337 24.1079 39.8097 23.6496 39.8149C23.4201 39.8162 23.1927 39.7714 22.981 39.6832C22.7693 39.595 22.5778 39.4652 22.4179 39.3016L13.6131 30.5279C13.4497 30.3681 13.3199 30.1776 13.2312 29.9675C13.1425 29.7575 13.0966 29.532 13.0964 29.3042C13.102 28.8451 13.2873 28.4062 13.6131 28.0805L22.2914 19.4293C22.4525 19.2677 22.6441 19.1393 22.8553 19.0515C23.0664 18.9637 23.2929 18.9182 23.5219 18.9176C23.7508 18.9171 23.9775 18.9614 24.1891 19.0482C24.4007 19.135 24.593 19.2624 24.7548 19.4232C24.9167 19.584 25.045 19.775 25.1323 19.9852C25.2196 20.1954 25.2643 20.4207 25.2637 20.6481C25.2632 20.8756 25.2174 21.1006 25.129 21.3104C25.0406 21.5202 24.9113 21.7105 24.7487 21.8705L17.2786 29.298L24.8845 36.8666C25.2069 37.1933 25.3876 37.6327 25.3876 38.0903C25.3876 38.5479 25.2069 38.9872 24.8845 39.314L24.8814 39.3217Z" fill="currentColor"/>
<path fill-rule="evenodd" clip-rule="evenodd" d="M41.8165 29.3058C41.8098 29.7646 41.6246 30.2031 41.2998 30.5294L32.495 39.2969C32.3351 39.4605 32.1436 39.5903 31.9319 39.6786C31.7202 39.7668 31.4928 39.8116 31.2633 39.8103C30.7993 39.8069 30.3553 39.6225 30.0269 39.2969C29.7044 38.9752 29.5234 38.5396 29.5234 38.0856C29.5234 37.6316 29.7044 37.1961 30.0269 36.8743L37.6327 29.3058L30.1627 21.8783C29.8402 21.5528 29.6595 21.1144 29.6595 20.6577C29.6595 20.201 29.8402 19.7626 30.1627 19.4371C30.3226 19.2744 30.5137 19.1451 30.7247 19.0568C30.9357 18.9685 31.1623 18.923 31.3913 18.923C31.6202 18.923 31.8469 18.9685 32.0579 19.0568C32.2689 19.1451 32.46 19.2744 32.6199 19.4371L41.3029 28.0883C41.6298 28.4132 41.8154 28.8526 41.8197 29.312L41.8165 29.3058Z" fill="currentColor"/>
</svg>
