<svg xmlns="http://www.w3.org/2000/svg" width="87.57mm" height="31.95mm" viewBox="0 0 248.24 90.57"><path d="M87.5 6.35c-.11-.8-.43-1.23-.9-1.32V5a1.36 1.36 0 0 0 1.05-1.33 1.28 1.28 0 0 0-.49-1.11 2.87 2.87 0 0 0-1.69-.41 10.33 10.33 0 0 0-1.53.12v5.41h.86V5.35h.61a1 1 0 0 1 1.16 1 3.92 3.92 0 0 0 .37 1.38h.91a4.3 4.3 0 0 1-.35-1.38Zm-2.07-1.67h-.63V2.85a4.31 4.31 0 0 1 .63-.05c1 0 1.32.48 1.32 1 0 .62-.61.88-1.32.88Zm2.07 1.67c-.11-.8-.43-1.23-.9-1.32V5a1.36 1.36 0 0 0 1.05-1.33 1.28 1.28 0 0 0-.49-1.11 2.87 2.87 0 0 0-1.69-.41 10.33 10.33 0 0 0-1.53.12v5.41h.86V5.35h.61a1 1 0 0 1 1.16 1 3.92 3.92 0 0 0 .37 1.38h.91a4.3 4.3 0 0 1-.35-1.38Zm-2.07-1.67h-.63V2.85a4.31 4.31 0 0 1 .63-.05c1 0 1.32.48 1.32 1 0 .62-.61.88-1.32.88Zm2.07 1.67c-.11-.8-.43-1.23-.9-1.32V5a1.36 1.36 0 0 0 1.05-1.33 1.28 1.28 0 0 0-.49-1.11 2.87 2.87 0 0 0-1.69-.41 10.33 10.33 0 0 0-1.53.12v5.41h.86V5.35h.61a1 1 0 0 1 1.16 1 3.92 3.92 0 0 0 .37 1.38h.91a4.3 4.3 0 0 1-.35-1.38Zm-2.07-1.67h-.63V2.85a4.31 4.31 0 0 1 .63-.05c1 0 1.32.48 1.32 1 0 .62-.61.88-1.32.88Zm2.07 1.67c-.11-.8-.43-1.23-.9-1.32V5a1.36 1.36 0 0 0 1.05-1.33 1.28 1.28 0 0 0-.49-1.11 2.87 2.87 0 0 0-1.69-.41 10.33 10.33 0 0 0-1.53.12v5.41h.86V5.35h.61a1 1 0 0 1 1.16 1 3.92 3.92 0 0 0 .37 1.38h.91a4.3 4.3 0 0 1-.35-1.38Zm-2.07-1.67h-.63V2.85a4.31 4.31 0 0 1 .63-.05c1 0 1.32.48 1.32 1 0 .62-.61.88-1.32.88Zm2.07 1.67c-.11-.8-.43-1.23-.9-1.32V5a1.36 1.36 0 0 0 1.05-1.33 1.28 1.28 0 0 0-.49-1.11 2.87 2.87 0 0 0-1.69-.41 10.33 10.33 0 0 0-1.53.12v5.41h.86V5.35h.61a1 1 0 0 1 1.16 1 3.92 3.92 0 0 0 .37 1.38h.91a4.3 4.3 0 0 1-.35-1.38Zm-2.07-1.67h-.63V2.85a4.31 4.31 0 0 1 .63-.05c1 0 1.32.48 1.32 1 0 .62-.61.88-1.32.88Zm2.07 1.67c-.11-.8-.43-1.23-.9-1.32V5a1.36 1.36 0 0 0 1.05-1.33 1.28 1.28 0 0 0-.49-1.11 2.87 2.87 0 0 0-1.69-.41 10.33 10.33 0 0 0-1.53.12v5.41h.86V5.35h.61a1 1 0 0 1 1.16 1 3.92 3.92 0 0 0 .37 1.38h.91a4.3 4.3 0 0 1-.35-1.38Zm-2.07-1.67h-.63V2.85a4.31 4.31 0 0 1 .63-.05c1 0 1.32.48 1.32 1 0 .62-.61.88-1.32.88Zm2.07 1.67c-.11-.8-.43-1.23-.9-1.32V5a1.36 1.36 0 0 0 1.05-1.33 1.28 1.28 0 0 0-.49-1.11 2.87 2.87 0 0 0-1.69-.41 10.33 10.33 0 0 0-1.53.12v5.41h.86V5.35h.61a1 1 0 0 1 1.16 1 3.92 3.92 0 0 0 .37 1.38h.91a4.3 4.3 0 0 1-.35-1.38Zm-2.07-1.67h-.63V2.85a4.31 4.31 0 0 1 .63-.05c1 0 1.32.48 1.32 1 0 .62-.61.88-1.32.88Zm2.07 1.67c-.11-.8-.43-1.23-.9-1.32V5a1.36 1.36 0 0 0 1.05-1.33 1.28 1.28 0 0 0-.49-1.11 2.87 2.87 0 0 0-1.69-.41 10.33 10.33 0 0 0-1.53.12v5.41h.86V5.35h.61a1 1 0 0 1 1.16 1 3.92 3.92 0 0 0 .37 1.38h.91a4.3 4.3 0 0 1-.35-1.38Zm-2.07-1.67h-.63V2.85a4.31 4.31 0 0 1 .63-.05c1 0 1.32.48 1.32 1 0 .62-.61.88-1.32.88Zm.3-4.68a4.82 4.82 0 0 0-4.8 4.86 4.8 4.8 0 1 0 9.6 0A4.78 4.78 0 0 0 85.73 0Zm0 9a4 4 0 0 1-3.9-4.12A4 4 0 0 1 85.7.75a4 4 0 0 1 3.88 4.13A4 4 0 0 1 85.73 9Zm.87-4a1.36 1.36 0 0 0 1.05-1.33 1.28 1.28 0 0 0-.49-1.11 2.87 2.87 0 0 0-1.69-.41 10.33 10.33 0 0 0-1.53.12v5.41h.86V5.35h.61a1 1 0 0 1 1.16 1 3.92 3.92 0 0 0 .37 1.38h.91a4.3 4.3 0 0 1-.35-1.33c-.11-.85-.43-1.28-.9-1.4Zm-1.17-.35h-.63v-1.8a4.31 4.31 0 0 1 .63-.05c1 0 1.32.48 1.32 1 0 .62-.61.88-1.32.88Zm2.07 1.7c-.11-.8-.43-1.23-.9-1.32V5a1.36 1.36 0 0 0 1.05-1.33 1.28 1.28 0 0 0-.49-1.11 2.87 2.87 0 0 0-1.69-.41 10.33 10.33 0 0 0-1.53.12v5.41h.86V5.35h.61a1 1 0 0 1 1.16 1 3.92 3.92 0 0 0 .37 1.38h.91a4.3 4.3 0 0 1-.35-1.38Zm-2.07-1.67h-.63V2.85a4.31 4.31 0 0 1 .63-.05c1 0 1.32.48 1.32 1 0 .62-.61.88-1.32.88Zm2.07 1.67c-.11-.8-.43-1.23-.9-1.32V5a1.36 1.36 0 0 0 1.05-1.33 1.28 1.28 0 0 0-.49-1.11 2.87 2.87 0 0 0-1.69-.41 10.33 10.33 0 0 0-1.53.12v5.41h.86V5.35h.61a1 1 0 0 1 1.16 1 3.92 3.92 0 0 0 .37 1.38h.91a4.3 4.3 0 0 1-.35-1.38Zm-2.07-1.67h-.63V2.85a4.31 4.31 0 0 1 .63-.05c1 0 1.32.48 1.32 1 0 .62-.61.88-1.32.88Zm2.07 1.67c-.11-.8-.43-1.23-.9-1.32V5a1.36 1.36 0 0 0 1.05-1.33 1.28 1.28 0 0 0-.49-1.11 2.87 2.87 0 0 0-1.69-.41 10.33 10.33 0 0 0-1.53.12v5.41h.86V5.35h.61a1 1 0 0 1 1.16 1 3.92 3.92 0 0 0 .37 1.38h.91a4.3 4.3 0 0 1-.35-1.38Zm-2.07-1.67h-.63V2.85a4.31 4.31 0 0 1 .63-.05c1 0 1.32.48 1.32 1 0 .62-.61.88-1.32.88Zm2.07 1.67c-.11-.8-.43-1.23-.9-1.32V5a1.36 1.36 0 0 0 1.05-1.33 1.28 1.28 0 0 0-.49-1.11 2.87 2.87 0 0 0-1.69-.41 10.33 10.33 0 0 0-1.53.12v5.41h.86V5.35h.61a1 1 0 0 1 1.16 1 3.92 3.92 0 0 0 .37 1.38h.91a4.3 4.3 0 0 1-.35-1.38Zm-2.07-1.67h-.63V2.85a4.31 4.31 0 0 1 .63-.05c1 0 1.32.48 1.32 1 0 .62-.61.88-1.32.88Zm2.07 1.67c-.11-.8-.43-1.23-.9-1.32V5a1.36 1.36 0 0 0 1.05-1.33 1.28 1.28 0 0 0-.49-1.11 2.87 2.87 0 0 0-1.69-.41 10.33 10.33 0 0 0-1.53.12v5.41h.86V5.35h.61a1 1 0 0 1 1.16 1 3.92 3.92 0 0 0 .37 1.38h.91a4.3 4.3 0 0 1-.35-1.38Zm-2.07-1.67h-.63V2.85a4.31 4.31 0 0 1 .63-.05c1 0 1.32.48 1.32 1 0 .62-.61.88-1.32.88Zm2.07 1.67c-.11-.8-.43-1.23-.9-1.32V5a1.36 1.36 0 0 0 1.05-1.33 1.28 1.28 0 0 0-.49-1.11 2.87 2.87 0 0 0-1.69-.41 10.33 10.33 0 0 0-1.53.12v5.41h.86V5.35h.61a1 1 0 0 1 1.16 1 3.92 3.92 0 0 0 .37 1.38h.91a4.3 4.3 0 0 1-.35-1.38Zm-2.07-1.67h-.63V2.85a4.31 4.31 0 0 1 .63-.05c1 0 1.32.48 1.32 1 0 .62-.61.88-1.32.88Zm2.07 1.67c-.11-.8-.43-1.23-.9-1.32V5a1.36 1.36 0 0 0 1.05-1.33 1.28 1.28 0 0 0-.49-1.11 2.87 2.87 0 0 0-1.69-.41 10.33 10.33 0 0 0-1.53.12v5.41h.86V5.35h.61a1 1 0 0 1 1.16 1 3.92 3.92 0 0 0 .37 1.38h.91a4.3 4.3 0 0 1-.35-1.38Zm-2.07-1.67h-.63V2.85a4.31 4.31 0 0 1 .63-.05c1 0 1.32.48 1.32 1 0 .62-.61.88-1.32.88Zm2.07 1.67c-.11-.8-.43-1.23-.9-1.32V5a1.36 1.36 0 0 0 1.05-1.33 1.28 1.28 0 0 0-.49-1.11 2.87 2.87 0 0 0-1.69-.41 10.33 10.33 0 0 0-1.53.12v5.41h.86V5.35h.61a1 1 0 0 1 1.16 1 3.92 3.92 0 0 0 .37 1.38h.91a4.3 4.3 0 0 1-.35-1.38Zm-2.07-1.67h-.63V2.85a4.31 4.31 0 0 1 .63-.05c1 0 1.32.48 1.32 1 0 .62-.61.88-1.32.88Z" style="fill:currentColor"></path><path d="M101.69 78.59h6.53c4.52 0 6-2.61 6-5.62 0-2.56-1.37-4.17-3.49-4.47a4 4 0 0 0 2.9-4.2c0-3.69-2.29-4.87-5.46-4.87h-6.48v19.16Zm3.87-16.36H107c1.91 0 2.8.67 2.8 2.5s-1 2.53-3.1 2.53h-1.1v-5Zm0 7.72h1.67c1.69 0 3 .65 3 2.88s-1.27 2.91-3.12 2.91h-1.51V70ZM115.47 69c0 5.84.73 10 6.54 10s6.54-4.15 6.54-10-.73-10-6.54-10-6.54 4.15-6.54 10Zm3.88 0c0-5.14.38-7.13 2.66-7.13s2.67 2 2.67 7.13-.38 7.14-2.67 7.14-2.66-2-2.66-7.14Z" style="fill:currentColor;fill-rule:evenodd"></path><path d="M130.59 59.38v13.4c0 5.14 3 6.19 6.14 6.19s6.13-1.3 6.13-6.19v-13.4H139v13.4c0 1.91-.46 3.34-2.26 3.34s-2.26-1.43-2.26-3.34v-13.4ZM145.31 59.38v19.21h3.55V65.14h.05l4.74 13.45h4.41V59.38h-3.55v13.15h-.06l-4.68-13.15h-4.46z" style="fill:currentColor"></path><path d="M160.94 78.59H167c5.14 0 6.6-3.07 6.6-9.88 0-5.65-1-9.33-6.36-9.33h-6.34v19.21Zm3.87-16.36h1.64c3 0 3.31 2.23 3.31 6.59 0 5.22-.54 6.92-3.23 6.92h-1.72V62.23Z" style="fill:currentColor;fill-rule:evenodd"></path><path style="fill:currentColor" d="M100.66 11.48v3.17h4.2v16.04h3.87V14.65h4.2v-3.17h-12.27zM114.6 30.69h3.87v-8.53H123v8.53h3.87V11.48H123v7.34h-4.53v-7.34h-3.87v19.21zM129.56 11.48v19.21h11v-3.18h-7.13v-5.16h6.46v-3.18h-6.46v-4.52h6.86v-3.17h-10.73zM180.19 59.38v3.17h4.19v16.04h3.88V62.55h4.19v-3.17h-12.26z"></path><path d="M198 62.23h1.83a2.38 2.38 0 0 1 2.69 2.66c0 2.07-1.05 2.88-2.91 2.88H198v-5.54Zm-3.88 16.36H198v-8.13h2.07c1.56 0 2.23.92 2.29 2.42l.1 3.69a3.74 3.74 0 0 0 .49 2h4.19v-.16c-.72-.38-.83-1.43-.85-3.45-.06-4.06-.46-5.51-3.1-5.86v-.05c2.18-.46 3.2-2.19 3.2-4.74 0-3.28-1.93-4.95-5.11-4.95h-7.16v19.23Z" style="fill:currentColor;fill-rule:evenodd"></path><path d="M208.66 59.38v13.4c0 5.14 3 6.19 6.14 6.19s6.13-1.3 6.13-6.19v-13.4h-3.87v13.4c0 1.91-.46 3.34-2.26 3.34s-2.26-1.43-2.26-3.34v-13.4ZM222.71 72.59v.78c0 3.55 1.72 5.6 6.1 5.6 4.2 0 6.67-1.83 6.67-5.9 0-2.34-.75-3.82-3.66-5.08l-3-1.29c-1.64-.7-2-1.43-2-2.61a2 2 0 0 1 2.2-2.24c1.48 0 2.1 1 2.1 2.86h3.71v-.54c0-3.69-2.5-5.17-5.94-5.17-3.66 0-5.95 1.91-5.95 5.65 0 3.2 1.59 4.63 5 5.81 2.56.89 3.45 1.54 3.45 3.29a2.22 2.22 0 0 1-2.31 2.37c-2 0-2.56-1.16-2.56-3v-.56ZM235.97 59.38v3.17h4.19v16.04h3.88V62.55h4.2v-3.17h-12.27z" style="fill:currentColor"></path><path d="M101.22 44.85c0 5.8.72 9.92 6.5 9.92s6.49-4.12 6.49-9.92-.72-9.91-6.49-9.91-6.5 4.11-6.5 9.91Zm3.85 0c0-5.1.37-7.08 2.65-7.08s2.64 2 2.64 7.08-.37 7.09-2.64 7.09-2.65-1.95-2.65-7.09Z" style="fill:currentColor;fill-rule:evenodd"></path><path d="M116.24 35.31v13.31c0 5.11 3 6.15 6.09 6.15s6.1-1.28 6.1-6.15V35.31h-3.85v13.31c0 1.9-.45 3.32-2.25 3.32s-2.24-1.42-2.24-3.32V35.31ZM129.98 35.31v3.16h4.17V54.4H138V38.47h4.17v-3.16h-12.19zM147.05 54.4h4.3l2.14-13.85h.05l2.14 13.85h4.3l3.48-19.09h-3.69l-2.11 14.11h-.05l-2.25-14.11h-3.69l-2.24 14.11h-.06l-2.11-14.11h-3.69l3.48 19.09z" style="fill:currentColor"></path><path d="M162.17 54.39h4l.89-4h5.07l.89 4h4L172 35.31h-4.76l-5.05 19.08Zm7.41-15.76 1.85 8.58h-3.75l1.85-8.58ZM182.22 38.14H184a2.37 2.37 0 0 1 2.67 2.65c0 2.06-1 2.86-2.88 2.86h-1.6v-5.51Zm-3.85 16.25h3.85v-8.07h2.05c1.55 0 2.22.91 2.28 2.41l.1 3.66a3.75 3.75 0 0 0 .48 2h4.17v-.16c-.72-.37-.83-1.41-.85-3.42-.06-4-.46-5.48-3.08-5.82v-.06c2.17-.45 3.18-2.16 3.18-4.7 0-3.26-1.92-4.92-5.07-4.92h-7.11v19.08ZM193.12 54.39h6.07c5.1 0 6.55-3 6.55-9.8 0-5.62-1-9.28-6.31-9.28h-6.31v19.08ZM197 38.14h1.63c2.94 0 3.29 2.22 3.29 6.55 0 5.19-.54 6.87-3.21 6.87H197V38.14ZM89.78 48.89a5 5 0 0 0 .13-5.21 2 2 0 0 1-.08-1.91 5 5 0 0 0-.83-5.15 1.57 1.57 0 0 1-.32-1.62 5 5 0 0 0-1.51-5.13 1.58 1.58 0 0 1-.61-1.46 5.09 5.09 0 0 0-2.39-4.95 1.5 1.5 0 0 1-.78-1.38 5 5 0 0 0-3-4.39 1.81 1.81 0 0 1-1.09-1.4 5 5 0 0 0-3.77-3.79 1.22 1.22 0 0 1-1-.8c-.83-2.17-2.52-3-4.67-3.67-1.81-.58-2.59-3.2-5-3.26a3.08 3.08 0 0 0-.8 0 1.58 1.58 0 0 1-1.61-.71 4.94 4.94 0 0 0-5.06-1.69 1.55 1.55 0 0 1-1.53-.46A5.1 5.1 0 0 0 50.58 1a1.67 1.67 0 0 1-1.74-.2 5 5 0 0 0-5.34 0 1.49 1.49 0 0 1-1.57.06 5.24 5.24 0 0 0-5.43.78c-.27.21-.42.6-.93.44a5.07 5.07 0 0 0-5.49 1.21c-1.52 1.58-3.93.13-5.36 1.81a12 12 0 0 0-1.19 1.28 1.52 1.52 0 0 1-1.38.82 5.11 5.11 0 0 0-4.28 2.7 2.41 2.41 0 0 1-1.78 1.47c-3.29.84-3.5 5-6.52 6.26-.93.41-1.3 1.72-1.37 2.81a1.66 1.66 0 0 1-.94 1.46 5 5 0 0 0-2.44 4.6 1.72 1.72 0 0 1-.7 1.61 5.06 5.06 0 0 0-1.77 5A1.56 1.56 0 0 1 2 34.69a5.08 5.08 0 0 0-1 5.41 1.48 1.48 0 0 1-.21 1.57A5.13 5.13 0 0 0 .7 47a1.49 1.49 0 0 1 .14 1.57A5 5 0 0 0 1.57 54a1.58 1.58 0 0 1 .3 1.61 4.62 4.62 0 0 0 1.06 4.5A3.9 3.9 0 0 1 4 63a4.59 4.59 0 0 0 2.29 4 1.71 1.71 0 0 1 .85 1.52 5.14 5.14 0 0 0 3.11 4.36 1.57 1.57 0 0 1 1 1.24A4.91 4.91 0 0 0 15 78a1.54 1.54 0 0 1 1.22 1.06 5.16 5.16 0 0 0 4.39 3.33 1.55 1.55 0 0 1 1.31.89 5 5 0 0 0 4.57 2.48 1.75 1.75 0 0 1 1.63.66 5.07 5.07 0 0 0 5 1.8 1.59 1.59 0 0 1 1.54.33 5 5 0 0 0 5.53.94c.63-.26 1 0 1.42.25a5.2 5.2 0 0 0 5.49.08 1.31 1.31 0 0 1 1.43-.11A5 5 0 0 0 54 89a1.79 1.79 0 0 1 1.75-.31 5 5 0 0 0 5-1.55c.51-.52.88-.9 1.64-.52A5.51 5.51 0 0 0 67 84.33a2 2 0 0 1 1.64-.94 5 5 0 0 0 4.24-3 1.68 1.68 0 0 1 1.35-1.1A5 5 0 0 0 78 75.7a1.77 1.77 0 0 1 1.14-1.35 5.09 5.09 0 0 0 3.25-4.25 1.63 1.63 0 0 1 .82-1.37 4.93 4.93 0 0 0 2.55-4.84 1.34 1.34 0 0 1 .61-1.31 5.17 5.17 0 0 0 1.83-5.2 1.53 1.53 0 0 1 .42-1.52 5 5 0 0 0 1-5.25 1.73 1.73 0 0 1 .16-1.72Zm-.91-9.26c0 1.95-.54 2.31-2.3 1.49-1.56-.72-3.17-1.36-3.45-3.41-.2-1.42.12-1.75 1.53-1.38.83.21 1.65.44 2.46.72a2.48 2.48 0 0 1 1.76 2.58Zm-3.37-9a3 3 0 0 1 2 3.68.92.92 0 0 1-.76.72c-1.56.22-4.63-1.6-5.17-3.07s-.31-1.77 1.72-1.69a22.76 22.76 0 0 1 2.21.37Zm-8.75 34.62c-.07.12-.16.24-.24.36L71.67 62A31.07 31.07 0 0 0 76 51.46l5.78 1.41c0 .25-.09.5-.15.75a7.11 7.11 0 0 1-.49 2.28 40.29 40.29 0 0 1-3.87 8.76 1.93 1.93 0 0 1-.45.53ZM46.1 75.74l2.4-13.44a17.11 17.11 0 0 0 6.73-2.76l11.31 7.25-7-11.58a17.33 17.33 0 0 0 2.86-6.84l13.43-2.49A30.48 30.48 0 0 1 46.1 75.74ZM8.81 53 15 51.47a30.82 30.82 0 0 0 4.3 10.59l-5.09 3.77.4.55 5.06-3.75a31.27 31.27 0 0 0 8.1 8.24l-3.27 5.2.57.36 3.26-5.18a31 31 0 0 0 10.93 4.56l-1.43 6A37.33 37.33 0 0 1 8.81 53Zm5.41-28.31 5.17 3.64A30.92 30.92 0 0 0 15 38.79L8.81 37.6a37.05 37.05 0 0 1 5.41-12.93Zm30.7-9.85-2.51 13.42a17.19 17.19 0 0 0-6.84 2.86L24.41 24l6.88 11.45a17.13 17.13 0 0 0-2.84 6.9L15 44.69a30.48 30.48 0 0 1 29.92-29.87Zm16.18-3.33c.38.17.74.35 1.1.54a4.81 4.81 0 0 1 .51.25l.7.39c.28.14.54.3.8.46s.53.31.78.47l.09.06h.08l.13.08.49.33-3.28 5.14a30.86 30.86 0 0 0-10.64-4.44l1.07-6a36.48 36.48 0 0 1 8.17 2.72ZM76 24.09l.13.2-4.9 3.46a31.35 31.35 0 0 0-8.12-8.16l3.33-5.06.33.22a1.38 1.38 0 0 1 .22.13l.46.36.43.31c.38.29.75.58 1.12.89l.14.13c.28.23.54.46.8.7l.4.34c.14.13.28.28.43.41a36.4 36.4 0 0 1 4.92 5.58 4.4 4.4 0 0 1 .26.39Zm5.7 13.29v.29l-5.86 1.11a31 31 0 0 0-4.34-10.45l4.9-3.46c.19.29.38.56.56.85v.05a12.09 12.09 0 0 1 1.21 2 36.48 36.48 0 0 1 3.35 8.93 1 1 0 0 1 0 .55Zm-5.82 7.36-13.41-2.42a17.12 17.12 0 0 0-2.7-6.72l7-11.63-11.3 7.23a17.13 17.13 0 0 0-7-2.95l-2.36-13.43a30.49 30.49 0 0 1 29.77 29.92ZM48.62 61.6l2-11 11.12-2.1a16.65 16.65 0 0 1-13.12 13.1ZM29.18 48.5l11.87 2.16 1.73 11a16.64 16.64 0 0 1-13.6-13.16ZM42.27 29l-2.11 11.26-11 1.94A16.65 16.65 0 0 1 42.27 29Zm6.95 16.31a3.76 3.76 0 1 1-3.76-3.76 3.76 3.76 0 0 1 3.76 3.73Zm1.29-5.12L48.57 29a16.66 16.66 0 0 1 13.2 13.23ZM8.68 38.27l6.22 1.18a31.51 31.51 0 0 0-.54 5.36l-2.8.49 2.8.51a31.73 31.73 0 0 0 .49 5l-6.17 1.5a37.11 37.11 0 0 1 0-14ZM15 45.93l13.43 2.44a17.28 17.28 0 0 0 2.76 6.7l-7 11.72 11.41-7.32a17 17 0 0 0 7.27 2.9L45 75.75a30.49 30.49 0 0 1-30-29.82Zm67.14 5.13a1.9 1.9 0 0 1-.23.75c0 .14 0 .26-.07.39l-5.8-1.41a32.11 32.11 0 0 0 .48-5L79 45.3l-2.46-.44a31 31 0 0 0-.54-5.4l5.85-1.11a4.35 4.35 0 0 1 .1.52A4.77 4.77 0 0 1 82.4 41a39.19 39.19 0 0 1-.22 10.06Zm3-23.63c.05.51 0 1-.53 1.2-1.26.51-4.81-.77-5.57-2-.94-1.51-.71-2 1-2.1h1.12c2.76-.09 3.84.71 4.05 2.9ZM78.9 19a2.94 2.94 0 0 1 3.1 2.76.89.89 0 0 1-.93 1h-1.89A3.54 3.54 0 0 1 75.34 21c-.52-.79-.38-1.32.56-1.52a23.55 23.55 0 0 1 3-.48Zm-4.11-5.06c1.25-.28 3.1 1.38 3.13 2.65 0 .55-.3.76-.76.87-.26.06-.51.15-.78.2L74 18a3.74 3.74 0 0 1-2.82-1.5c-.59-.64-.48-1.18.33-1.48a25.16 25.16 0 0 1 3.28-1.1Zm-7.25-3.26c2.67-1.55 4.14-1.31 5.27.74.31.55.41 1-.24 1.32A16.74 16.74 0 0 1 68.85 14a4.74 4.74 0 0 1-.84-.14c-.87-.37-2-.66-2.15-1.67s1.03-1.14 1.68-1.53Zm-.72-3.53c.84.78 1 1.4-.17 2.07-2.15 1.23-2.67 1.49-3.8 1.44a4.14 4.14 0 0 1-.78-.17c-.63-.26-1.47-.39-1.65-1.11s.66-1.12 1.16-1.54c2.49-2.12 3.6-2.24 5.24-.71ZM57 4.24a2.07 2.07 0 0 1 1.39-.71 3 3 0 0 1 3 1.52c.48 1-.8 1.32-1.4 1.8-.89.72-1.71 1.68-3.07 1.54l-1.23-.33c-1.25-.31-1.48-.91-.54-1.86.58-.65 1.18-1.33 1.85-1.96Zm-7.85.48a13.61 13.61 0 0 1 1.27-1.82 2.92 2.92 0 0 1 4.26-.11.8.8 0 0 1 .31.83C54.68 4.74 51.64 7 50.34 7c-.58 0-1.34 0-1.79-.6s.28-1.16.58-1.68Zm-6.62.41c.4-.81.73-1.66 1.19-2.44a2.85 2.85 0 0 1 4.15-.9.85.85 0 0 1 .45.92c-.29 1.74-2.91 4-4.65 4-1.2.06-1.8-.31-1.16-1.58ZM45.27 8a37 37 0 0 1 5.7.44h.14c.39.06.77.15 1.16.22l-1.07 6a30.77 30.77 0 0 0-5.2-.52l-.45-2.62-.49 2.61a32.57 32.57 0 0 0-5.27.52L38.7 8.57A37.42 37.42 0 0 1 45.27 8Zm-9-1.89c.26-.81.5-1.63.74-2.45a2.52 2.52 0 0 1 2.79-1.92c1.85.05 2.14.56 1.35 2.27s-1.49 3.34-3.75 3.46c-1.11.06-1.51-.28-1.16-1.38ZM30.25 8c.09-.79.15-1.6.3-2.39.36-1.87 1.21-2.54 3.19-2.52 1 0 1.52.32 1.11 1.54-.61 1.79-.73 3.84-3.07 4.48-1.13.34-1.67.18-1.53-1.11Zm-2.69-2.6c.5 0 1 0 1.11.65.36 1.41-.73 4.56-1.89 5.32-.54.35-1.12.83-1.76.51s-.47-1-.49-1.6v-1c-.07-2.67.89-3.88 3.03-3.88Zm-8 4.26c.74-.62 1.63-1.31 2.58-1 1.22.43.38 1.7.7 2.53a3.68 3.68 0 0 1-1.69 3.89c-.86.62-1.49.59-1.73-.55s-.37-2.1-.5-3.16a1.9 1.9 0 0 1 .67-1.71ZM38 8.69l1.09 6.09a30.75 30.75 0 0 0-10.66 4.43L25.06 14l-.57.38 3.41 5.17a31.62 31.62 0 0 0-8.14 8.17l-5.16-3.61A37.25 37.25 0 0 1 38 8.69Zm-21.5 4a.77.77 0 0 1 .89.69c.08.32.17.62.23.94.14.78.26 1.57.41 2.46a4 4 0 0 1-1.84 2.92c-.55.42-.92.07-1.1-.42a24.39 24.39 0 0 1-1.19-3.46c-.25-1.32 1.31-3.07 2.63-3.15Zm-5.4 5.27c.86-.6 1.46-.54 1.79.54A17.34 17.34 0 0 1 14 22a9.12 9.12 0 0 1-.37 1.12c-.33.67-.6 1.54-1.4 1.65s-1.09-.9-1.44-1.5c-1.65-2.78-1.52-4.04.34-5.33Zm-3.46 5.35a.83.83 0 0 1 1-.06c1.56 1 2.32 4.64 1.34 6.26-.39.64-.85 1.11-1.47.35-1-1.17-2.17-2.23-2.44-3.65a3.54 3.54 0 0 1 1.57-2.9Zm-2.86 6a.76.76 0 0 1 .89-.11c.79.42 2.73 3.54 2.68 4.56-.07.27-.16.69-.26 1.11-.31 1.2-.91 1.54-1.9.6a26.32 26.32 0 0 1-2.06-2 3 3 0 0 1 .65-4.12Zm-1.89 6.48a.79.79 0 0 1 .73-.17C4.74 35.94 7 38.85 7 40.13c-.18.61.1 1.55-.68 1.94s-1.18-.35-1.69-.67a12.4 12.4 0 0 1-2-1.55 3 3 0 0 1 .26-4.06Zm-1.15 7c.2-.32.41-.61.88-.56 1.63.17 4.13 3.05 4.12 5.12 0 .69-.33 1.34-1.54.75-.82-.4-1.67-.72-2.45-1.16a2.91 2.91 0 0 1-1.01-4.15Zm0 8.49a2.32 2.32 0 0 1 .51-2.11c.67-.59 1.27.15 1.89.38 1.77.67 3.33 1.54 3.34 3.7.14 1.07-.36 1.36-1.22 1.13s-1.95-.58-2.91-.9a2.37 2.37 0 0 1-1.64-2.2ZM5.33 60a2.85 2.85 0 0 1-2.24-3.49c.09-.44.22-.81.75-.9 1.68-.27 4.65 1.59 5.26 3.21.42 1.13.19 1.66-1.08 1.59-.9-.17-1.81-.25-2.69-.41Zm.06 3.1c0-.52 0-1 .61-1.16 1.26-.42 4.6.73 5.34 1.86.35.53.86 1.11.56 1.76s-1.12.46-1.74.51h-1c-2.57.02-3.71-.88-3.77-3Zm6.14 8.55a1.91 1.91 0 0 1-1.65-.44c-.82-.76-1.55-1.75-1.19-2.8s1.69-.45 2.55-.66a3.65 3.65 0 0 1 3.89 1.7c.64.88.5 1.5-.6 1.72s-2 .33-3 .45Zm4.41 5a3.42 3.42 0 0 1-3.29-2.53.83.83 0 0 1 .35-.82c1.37-1.07 5-.77 6.24.48.82.82.85 1.44-.32 1.87s-2.22.76-2.98 1.02ZM20.18 81a3.4 3.4 0 0 1-2.59-2.12.68.68 0 0 1 .19-.85c1.23-1.27 4.78-1.53 6.23-.49.95.69 1 1.23 0 1.89A8.77 8.77 0 0 1 20.18 81Zm5.58 3.49a3.57 3.57 0 0 1-2.5-1.57.78.78 0 0 1 0-1c1.15-1.53 4.51-2.28 6.14-1.37 1 .53 1.07 1 .21 1.8-1.52 1.31-2.8 2.11-3.85 2.12Zm6.18 2.58a3.28 3.28 0 0 1-1.8-.62c-1.35-.85-1.4-1.26-.17-2.21 1.44-1.11 2.75-2.6 4.94-1.75 1.12.43 1.57.91.6 1.89s-1.83 2.53-3.57 2.67Zm9.84-1.7c-.58.83-1.14 1.67-1.76 2.47a1.89 1.89 0 0 1-1.79.8 3.57 3.57 0 0 1-1.84-.49c-1-.46-1.1-1.06-.31-1.84 1.36-1.35 2.43-3.18 4.88-2.62 1.11.23 1.55.61.82 1.66Zm6.22.23a20.94 20.94 0 0 1-1.2 2.4 2.27 2.27 0 0 1-2.54 1.24c-.63-.11-1.56-.12-1.95-.88s.43-1.23.78-1.8c.84-1.39 1.73-2.68 3.62-2.73 1.5-.03 1.87.39 1.29 1.75Zm-2.73-3a37.34 37.34 0 0 1-6.81-.6l1.44-6a30.63 30.63 0 0 0 5.19.5l.41 2.63.5-2.71a30.73 30.73 0 0 0 5.11-.5l1.41 6c-.37.08-.73.17-1.11.23H51.2a35.62 35.62 0 0 1-5.93.45Zm9.1 1.76c-.27 1-.58 2-.9 2.91a2.34 2.34 0 0 1-2 1.58 2.42 2.42 0 0 1-2.26-.5c-.58-.66.15-1.28.39-1.89.67-1.78 1.55-3.33 3.69-3.33 1.05-.13 1.31.38 1.08 1.23Zm5.91-.88c-.09.48-.17 1.28-.38 2.06a3 3 0 0 1-3.71 1.89.85.85 0 0 1-.62-.66c-.24-1.19 1.44-4.5 2.6-5 .56-.26 1.19-.74 1.8-.37s.29 1.14.31 2.08Zm1.36-4.67h-.07a2.26 2.26 0 0 1-.22.11l-1.35.63-.21.09-.22.09-.27.12-.7.27-.6.23-.14.05q-.48.18-1 .33c-.33.11-.67.22-1 .31h-.16l-.42.11a.47.47 0 0 1-.14 0h-.18c-.43.12-.87.24-1.31.33a.34.34 0 0 1-.16 0l-.35.07-1.39-5.75a30.89 30.89 0 0 0 10.91-4.58l3.23 5.13c-.16.11-.32.23-.49.33a1.57 1.57 0 0 1-.4.32c-.49.31-1 .57-1.51.85-.17.1-.33.21-.5.3l-.35.18-.57.29Zm1.5 6.37c-.57.1-1.07 0-1.25-.66-.35-1.38.68-4.49 1.8-5.23.56-.37 1.17-1 1.88-.58s.4 1.16.45 1.77v.57c.25 3.06-.67 3.75-2.88 4.13ZM68.78 82a.83.83 0 0 1-1-.81c-.08-.63-.08-1.27-.15-2.36-.26-1.32.52-2.56 1.93-3.49.81-.54 1.32-.29 1.52.6a27.21 27.21 0 0 1 .5 2.84 3 3 0 0 1-2.8 3.22Zm-1.66-6.44a2.16 2.16 0 0 1-.39.23l-.27.18-3.24-5.13a31.23 31.23 0 0 0 8.09-8.24l4.83 3.58-.14.22c0 .24-.26.47-.4.66a38.11 38.11 0 0 1-8.48 8.5Zm7 2.37a.83.83 0 0 1-.83-.34c-1.08-1.44-.78-5 .5-6.24.82-.82 1.45-.83 1.86.35a17 17 0 0 1 1 3 3.38 3.38 0 0 1-2.54 3.23Zm4.76-5a.66.66 0 0 1-.85-.16c-1.34-1.24-1.57-4.93-.42-6.36.59-.73 1.08-1 1.7 0A11.61 11.61 0 0 1 81 70.29 3.54 3.54 0 0 1 78.87 73Zm3.87-5.58a.65.65 0 0 1-.87-.09c-1.55-1.16-2.29-4.5-1.39-6.13.53-1 1-1.07 1.81-.21 1.32 1.47 2.17 2.82 2.17 3.8a3.58 3.58 0 0 1-1.73 2.68Zm3-6.1a.75.75 0 0 1-.74.11c-.72-.3-2.78-3.56-2.75-4.51 0-.15.09-.41.14-.67.42-2 .88-2.17 2.43-.78a16.05 16.05 0 0 1 1.7 1.7 3 3 0 0 1-.82 4.2Zm2.42-7.12c-.46 1-1.06 1.11-1.85.33-1.39-1.38-3.16-2.5-2.61-4.95.24-1.08.64-1.44 1.61-.8s1.68 1.19 2.45 1.81a1.8 1.8 0 0 1 .84 1.66 3.9 3.9 0 0 1-.48 2Zm.7-6.4a.82.82 0 0 1-1 .51c-1.68-.4-3.82-2.8-3.94-4.44s.38-1.89 1.75-1.27a9.76 9.76 0 0 1 3.07 1.71 1.81 1.81 0 0 1 .54 1.56 3.86 3.86 0 0 1-.46 1.98Z" style="fill:currentColor;fill-rule:evenodd"></path></svg>