<svg class="fill-current w-full h-full" version="1.1" id="pb-logo-svg" xmlns="http://www.w3.org/2000/svg" xmlns:xlink="http://www.w3.org/1999/xlink" x="0px" y="0px" viewBox="0 0 537.8 262.2" style="enable-background:new 0 0 537.8 262.2;" xml:space="preserve" fill="#fff">
<!--<title>Preston Baker</title>-->
                    <g>
                        <path class="svg-main-red" d="M447.8,5.7v34.7c0,0,33-1.3,33,33.8s-33,32-33,32V146c0,0,83.9,4.4,83.9-72.9c0-60.3-50.8-71.2-73.4-73
			C451.9-0.4,447.8,0.5,447.8,5.7"></path>
                        <path class="svg-main-red" d="M478.1,161c3.6,6.5,5.4,13.8,5.3,21.2c0,37.6-35.7,36.6-35.7,36.6v37.4c0,5.6,4.4,6.5,11.2,6
			c24.1-1.9,78.8-13.3,78.8-77.7c0-20.8-6-35.8-14.2-47.1c-2.3-3.2-7-4.2-10.1-2.2s-27.9,15.3-32,17.2S476.7,158.4,478.1,161"></path>
                        <path class="svg-main-red" d="M447.8,40.5h-30.7c-6.8,0-11.9,1.9-11.9,8.9v159.4c0,6.9,2.8,10,10.4,10h32.2V146h-19.6
			c-4.3,0-8.6-2.4-8.6-8.2v-24c0-4.7,2.1-7.4,7.8-7.4h20.4V40.5z"></path>
                        <path class="st1" d="M0.6,39.3c0,0,10.6,0.3,13.6,0.3c6.3,0,10-0.3,17.9-0.3c16.5,0,28.8,8.9,28.8,24.1
			c0,12.7-10.8,22.2-25.2,22.2C35.4,85.8,23,85.7,23,85.7l0.2,17.7c0,5.2,0.7,8,11,8v6.7l-18-0.3l-16.1,0.3v-6.7c7,0,9-4,9-9
			c0-4.5,0.3-16.4,0.3-27c0-11.5-0.3-21.6-0.3-21.6c0-4.7,0-7.7-8.5-7.7L0.6,39.3z M23,77.5h8.6c8.3,0,14.2-5.3,14.2-14.6
			c0,0,0.7-15.5-16.2-15.5h-6.3C23.2,47.3,23,64.4,23,77.5"></path>
                        <path class="st1" d="M65,67.4c5,0,9.9-0.3,14.8-1.1l3.2,5.1c0.7,0,6.8-5.5,14.2-5.5c7.2,0,11.2,2.2,11.2,2.2v14.1h-10v-2.1
			c0-3.6-2.6-4.6-5.5-4.6c-2.4,0-4.8,0.8-6.8,2.1v27.7c0.1,5,0,6.1,9.1,6.1v6.7c0,0-10.4-0.3-14.2-0.3L65,118.1v-6.7
			c6.3,0,8.7-2.9,8.5-8.6c0,0,0.2-3.8,0.2-9.4c0-5.4-0.2-14.3-0.2-14.3c0-5.2-3.4-5.4-8.5-5.4V67.4z"></path>
                        <path class="st1" d="M160.1,94.3h-35.6v1.1c0.6,10.9,6.5,15.5,15.1,15.5c5.5-0.1,10.8-2.2,14.9-5.8h3.1l-0.1,9.1
			c0,0-7.6,5.4-20.6,5.4c-18.1,0-25.1-11.6-25.1-25.8c0-21.4,16.1-28,25.8-28c18.7,0,22.5,13.7,22.5,24.5V94.3z M147.5,86.7
			c0.3-3.9-1.7-12.9-10.4-12.9c-9.6,0-11.9,10.6-11.9,12.9H147.5z"></path>
                        <path class="st1" d="M202.2,70.6V81h-8.3c0-5.4-2.2-7.9-8.2-7.9c-4.5,0-8.3,2.4-8.3,6.3c0,3.4,2.6,5.1,5.6,6.4
			c8.4,3.8,22.6,5,22.6,17.8c0,9.2-6.6,16.1-20.8,16.1c-10.5,0-18.7-6.3-18.7-6.3v-11.9h8.7c0,7.1,4.4,10.1,10.6,10.1
			c4.2,0,8.7-2.4,8.7-6.5c0-11.1-28.1-6.6-28.1-24.1c0-9.6,8.8-15.1,18.7-15.1C196.3,65.9,202.2,70.7,202.2,70.6"></path>
                        <path class="st1" d="M231.7,53.3l-0.1,14.2h16.3v7.9h-16.4v20.3c0,10.6,1.4,14.3,9.3,14.3c2.2-0.1,4.2-0.7,6.1-1.8h2v6.4
			c0,0-4.3,5.2-13.8,5.2s-16.1-7.4-16.1-16.2V75.3h-10.2v-6.7c10.5,0,13.4-2.9,13.4-15.3H231.7z"></path>
                        <path class="st1" d="M278.5,65.9c11.2,0,25.3,4.2,25.3,25c0,18.9-11.1,28.8-25.2,28.8c-14.7,0-25.3-6.9-25.3-25.8
			C253.3,73.8,266.9,65.9,278.5,65.9 M278.3,73.8c-9.1,0-12.5,7-12.5,19.6c0,13.8,6,18.2,13.3,18.2c9.3,0,12.3-8.8,12.3-21.4
			C291.4,79,286.2,73.8,278.3,73.8"></path>
                        <path class="st1" d="M325.1,91.9c0,7,0.1,15.1,0.1,15.1c0,2.9,0,4.4,6.8,4.4v6.7c0,0-7.6-0.3-13.1-0.3c-4.9,0-12.9,0.3-12.9,0.3
			v-6.7c4.7,0,7.1-2.8,7.2-7.9l0.3-10.6l-0.3-13.7c0-4.4-2.2-5.5-6.6-5.5v-6.2c11.8,0,12.9-1.1,15.1-1.1l2.5,4.3
			c0.8,0,6.1-4.7,15.4-4.7S360,72.1,360,87.4v20c0,2.9,0,4.2,6.3,4.2v6.5c0,0-8.2-0.3-14-0.3c-5.6,0-13.6,0.3-13.6,0.3v-6.7
			c6.3,0,9.4-3.3,9.4-10.7v-9.3c0-12.4-4.2-15.5-12.6-15.5c-3.4-0.1-6.8,0.2-10.1,1C325.3,76.8,325.1,86,325.1,91.9"></path>
                        <path class="st1" d="M31,140.6c17.7,0,28.1,6.6,28.1,19.5c0,11.6-11.1,15.4-14.5,16.4v0.6c10.1,1.2,19.8,8,19.8,20.4
			c0,9.4-5,21.9-24.1,21.9c-10.7,0-14.7-0.4-22.5-0.4c-6.7,0-17.7,0.4-17.7,0.4v-6.7c8.9,0,10.9-2.9,10.9-11.1
			c0,0,0.3-15.4,0.3-24.9c0-8.6-0.3-22.9-0.3-22.9c0.2-3.8,0-6.3-10.4-6.3v-6.8c0,0,8.9,0.3,14.3,0.3C20.7,140.9,31,140.6,31,140.6
			 M24.3,148.4v25.7l3.3-0.1c10.4,0,17-5.1,17-13c0-9.8-7.9-12.6-15.2-12.6L24.3,148.4z M24.5,202.6c0,3.3,1.6,8.8,8.4,8.8h2.7
			c8,0,13.4-5.6,13.4-12.9c0-9.3-5.2-16.5-19.9-16.5h-4.9L24.5,202.6z"></path>
                        <path class="st1" d="M90,167.1c9.5,0,20.7,1.4,20.7,15.8v25.6c0,4.1,2.7,4.1,7.3,4.1v6.7c-3.8,0-7.6,0.3-11.2,1.1h-2.2l-4.4-4.8
			c-1.2,0-4.4,5.3-16.1,5.3c-11.2,0-16-8.4-16-13.6c0-4.9,1.1-11,11.1-15.1c8.4-3.5,18.8-4.5,18.8-4.5v-4.6c0-4.8-1.1-8.1-7.4-8.1
			c-6.5,0-10.1,1.7-10.1,8.1h-9v-9.9C71.4,173.2,78,167.1,90,167.1 M98,194.7c0,0-16.8,0.7-16.8,10.8c0,5.3,3.6,7.5,8.4,7.5
			c4.1,0,8.3-1.9,8.3-7.8V194.7z"></path>
                        <path class="st1" d="M123.3,134.4c5.8,0,11.7-0.4,17.4-1.1h2.7c0,0-0.3,32.9-0.3,43.3c0,6.3,0.3,15.1,0.3,15.1
			c0.9,0,17.4-12.1,17.4-14.8c0-1.6-1.1-1.9-3.6-1.9h-2.7v-6.2c0,0,10.7,0.3,17.7,0.3c4.8,0,11-0.3,11-0.3v6.2h-2.1
			c-6.8,0-13.4,7-18.8,11.9c6.6,11.3,11.9,18.9,15.4,22.9c1.7,1.8,3,2.8,7.1,2.9v6.7c0,0-8-0.3-13-0.3c-4.5,0-14.6,0.3-14.6,0.3
			v-6.7c3.3,0,5.9-1,3.9-5l-8.4-14.1l-9.2,6.6v8.9c0,2.4,0.4,3.5,5.8,3.5v6.7c0,0-8.6-0.3-13.1-0.3s-13.4,0.3-13.4,0.3v-6.7
			c5.9,0,8.6-1.7,8.6-7.1c0-0.2,0.3-19,0.3-28.9s-0.3-27.6-0.3-30c0-5.9-3.7-6-8-6L123.3,134.4z"></path>
                        <path class="st1" d="M234.8,195.6h-35.5v1.1c0.6,10.9,6.5,15.5,15.1,15.5c5.5-0.1,10.8-2.2,14.8-5.9h3.1l-0.1,9.1
			c0,0-7.7,5.4-20.6,5.4c-18.1,0-25.1-11.6-25.1-25.8c0-21.4,16.1-28,25.8-28c18.7,0,22.5,13.7,22.5,24.5L234.8,195.6z M222.2,187.9
			c0.3-3.9-1.7-12.9-10.3-12.9c-9.6,0-11.9,10.6-11.9,12.9H222.2z"></path>
                        <path class="st1" d="M237.9,168.7c5,0,9.9-0.4,14.8-1.1l3.2,5.1c0.7,0,6.7-5.5,14.2-5.5c7.2,0,11.2,2.2,11.2,2.2v14.1h-10v-2.1
			c0-3.6-2.6-4.6-5.5-4.6c-2.4,0-4.8,0.8-6.7,2.1v27.7c0.1,4.9,0,6.1,9.1,6.1v6.8c0,0-10.5-0.3-14.2-0.3l-16.1,0.3v-6.8
			c6.3,0,8.6-2.9,8.5-8.6c0,0,0.2-3.8,0.2-9.4c0-5.4-0.2-14.3-0.2-14.3c0-5.2-3.4-5.4-8.5-5.4L237.9,168.7z"></path>
                    </g>
</svg>